<?xml version="1.0" encoding="utf-8"?>
<!-- Generator: Adobe Illustrator 17.0.0, SVG Export Plug-In . SVG Version: 6.00 Build 0)  -->
<!DOCTYPE svg PUBLIC "-//W3C//DTD SVG 1.1//EN" "http://www.w3.org/Graphics/SVG/1.1/DTD/svg11.dtd">
<svg version="1.1" id="Layer_1" xmlns="http://www.w3.org/2000/svg" xmlns:xlink="http://www.w3.org/1999/xlink" x="0px" y="0px"
	 width="378px" height="100px" viewBox="0 0 378 100" style="enable-background:new 0 0 378 100;" xml:space="preserve">
<g>
	<path style="fill:#FFFFFF;" d="M58.8,20.4l5.6,14.1l5.7-14.1h3.4l-9.1,21.9l-8.9-21.9H58.8z"/>
	<path style="fill:#FFFFFF;" d="M74.1,30.5c0-2.9,1.1-5.3,3.2-7.4c2.1-2.1,4.6-3.1,7.5-3.1c2.9,0,5.4,1,7.5,3.1
		c2.1,2.1,3.1,4.6,3.1,7.5c0,2.9-1,5.4-3.1,7.4c-2.1,2-4.6,3.1-7.6,3.1c-2.6,0-5-0.9-7.1-2.7C75.3,36.4,74.1,33.8,74.1,30.5z
		 M77.2,30.5c0,2.2,0.8,4.1,2.3,5.5c1.5,1.4,3.2,2.2,5.2,2.2c2.1,0,3.9-0.7,5.4-2.2c1.5-1.5,2.2-3.3,2.2-5.5c0-2.2-0.7-4-2.2-5.5
		c-1.4-1.5-3.2-2.2-5.4-2.2c-2.1,0-3.9,0.7-5.4,2.2C78,26.6,77.2,28.4,77.2,30.5z"/>
	<path style="fill:#FFFFFF;" d="M102.9,30.1l-5.6-9.7h3.5l3.9,6.9l4.1-6.9h3.5l-5.9,9.7l6.2,10.6h-3.4l-4.5-7.8l-4.6,7.8h-3.5
		L102.9,30.1z"/>
	<path style="fill:#FFFFFF;" d="M122.5,31.4V29h5.8v-5.7h2.4V29h5.8v2.5h-5.8v5.7h-2.4v-5.7H122.5z"/>
	<path style="fill:#FFFFFF;" d="M147.9,40.8l4.3-21.9l7,15.8l7.2-15.8l3.8,21.9h-3.2l-2-12.3l-6,13.2l-5.9-13.2l-2.2,12.3H147.9z"/>
	<path style="fill:#FFFFFF;" d="M177.7,20.4v20.4h-3.1V20.4H177.7z"/>
	<path style="fill:#FFFFFF;" d="M194.1,23.4l-2.5,1.5c-0.5-0.8-0.9-1.3-1.3-1.6c-0.4-0.3-1-0.4-1.7-0.4c-0.9,0-1.6,0.2-2.1,0.7
		c-0.6,0.5-0.8,1.1-0.8,1.8c0,1,0.7,1.8,2.2,2.4l2,0.8c1.7,0.7,2.9,1.5,3.6,2.4c0.8,1,1.1,2.1,1.1,3.5c0,1.9-0.6,3.4-1.9,4.6
		c-1.3,1.2-2.8,1.8-4.7,1.8c-1.8,0-3.2-0.5-4.4-1.6c-1.1-1-1.8-2.5-2.1-4.4l3.1-0.7c0.1,1.2,0.4,2,0.7,2.5c0.6,0.9,1.6,1.3,2.8,1.3
		c1,0,1.8-0.3,2.4-1s0.9-1.5,0.9-2.4c0-0.4-0.1-0.8-0.2-1.1c-0.1-0.3-0.3-0.6-0.5-0.9c-0.2-0.3-0.5-0.5-0.9-0.8
		c-0.4-0.2-0.8-0.5-1.3-0.7l-2-0.8c-2.8-1.2-4.2-2.9-4.2-5.2c0-1.5,0.6-2.8,1.8-3.8c1.2-1,2.6-1.6,4.4-1.6
		C190.9,20,192.7,21.2,194.1,23.4z"/>
	<path style="fill:#FFFFFF;" d="M209.8,23.4l-2.5,1.5c-0.5-0.8-0.9-1.3-1.3-1.6c-0.4-0.3-1-0.4-1.7-0.4c-0.9,0-1.6,0.2-2.1,0.7
		c-0.6,0.5-0.8,1.1-0.8,1.8c0,1,0.7,1.8,2.2,2.4l2,0.8c1.7,0.7,2.9,1.5,3.6,2.4c0.8,1,1.1,2.1,1.1,3.5c0,1.9-0.6,3.4-1.9,4.6
		c-1.3,1.2-2.8,1.8-4.7,1.8c-1.8,0-3.2-0.5-4.4-1.6c-1.1-1-1.8-2.5-2.1-4.4l3.1-0.7c0.1,1.2,0.4,2,0.7,2.5c0.6,0.9,1.6,1.3,2.8,1.3
		c1,0,1.8-0.3,2.4-1s0.9-1.5,0.9-2.4c0-0.4-0.1-0.8-0.2-1.1c-0.1-0.3-0.3-0.6-0.5-0.9c-0.2-0.3-0.5-0.5-0.9-0.8
		c-0.4-0.2-0.8-0.5-1.3-0.7l-2-0.8c-2.8-1.2-4.2-2.9-4.2-5.2c0-1.5,0.6-2.8,1.8-3.8c1.2-1,2.6-1.6,4.4-1.6
		C206.7,20,208.5,21.2,209.8,23.4z"/>
	<path style="fill:#FFFFFF;" d="M213,30.5c0-2.9,1-5.3,3.2-7.4c2.1-2.1,4.6-3.1,7.5-3.1c2.9,0,5.4,1,7.5,3.1
		c2.1,2.1,3.1,4.6,3.1,7.5c0,2.9-1,5.4-3.1,7.4c-2.1,2-4.6,3.1-7.6,3.1c-2.6,0-5-0.9-7.1-2.7C214.2,36.4,213,33.8,213,30.5z
		 M216.1,30.5c0,2.2,0.8,4.1,2.3,5.5c1.5,1.4,3.2,2.2,5.2,2.2c2.1,0,3.9-0.7,5.4-2.2c1.5-1.5,2.2-3.3,2.2-5.5c0-2.2-0.7-4-2.2-5.5
		c-1.4-1.5-3.2-2.2-5.4-2.2c-2.1,0-3.9,0.7-5.4,2.2C216.9,26.6,216.1,28.4,216.1,30.5z"/>
	<path style="fill:#FFFFFF;" d="M241.2,20.4v12.3c0,1.7,0.3,3,0.9,3.8c0.9,1.2,2.1,1.8,3.6,1.8c1.6,0,2.8-0.6,3.6-1.8
		c0.6-0.8,0.9-2.1,0.9-3.8V20.4h3.1v13.1c0,2.1-0.7,3.9-2,5.3c-1.5,1.5-3.3,2.3-5.5,2.3s-4-0.8-5.5-2.3c-1.3-1.4-2-3.2-2-5.3V20.4
		H241.2z"/>
	<path style="fill:#FFFFFF;" d="M265,32.1l6.3,8.7h-3.8l-5.8-8.3h-0.6v8.3h-3.1V20.4h3.6c2.7,0,4.6,0.5,5.8,1.5c1.3,1.1,2,2.6,2,4.5
		c0,1.4-0.4,2.7-1.2,3.7S266.4,31.8,265,32.1z M261.2,29.8h1c2.9,0,4.4-1.1,4.4-3.3c0-2.1-1.4-3.1-4.2-3.1h-1.1V29.8z"/>
	<path style="fill:#FFFFFF;" d="M277.4,20.4v20.4h-3.1V20.4H277.4z"/>
	<path style="fill:#FFFFFF;" d="M294.3,35.8h-8.7l-2.3,4.9H280l10.1-21.6l9.7,21.6h-3.4L294.3,35.8z M293,32.9l-3-6.9l-3.2,6.9H293z
		"/>
	<path style="fill:#FFFFFF;" d="M302.3,40.8V19l14.8,15.5V20.4h3.1V42l-14.8-15.5v14.3H302.3z"/>
</g>
<g>
	<path style="fill:#BE1E2D;" d="M15.7,52.6h10.2v2.8h-3.5V76h-3.1V55.4h-3.6V52.6z"/>
	<path style="fill:#BE1E2D;" d="M28.3,52.6h4.1c1.7,0,3,0.4,3.8,1.2c1.1,1.1,1.6,2.7,1.6,4.9c0,1.7-0.3,3-0.8,4
		c-0.6,1-1.4,1.6-2.4,1.9L38.9,76h-3.2l-4.3-11.4V76h-3.1V52.6z M31.4,63c1.2,0,2.1-0.3,2.6-0.8c0.5-0.6,0.8-1.5,0.8-2.9
		c0-0.7-0.1-1.3-0.2-1.9c-0.1-0.5-0.3-0.9-0.5-1.3c-0.2-0.3-0.5-0.6-0.9-0.7c-0.4-0.2-0.8-0.2-1.3-0.2h-0.5V63z"/>
	<path style="fill:#BE1E2D;" d="M41.6,52.6h3.1v16.5c0,1.7,0.2,2.8,0.5,3.4c0.3,0.6,0.9,0.8,1.8,0.8s1.5-0.2,1.8-0.7
		c0.3-0.5,0.5-1.5,0.5-3v-17h3.1v17c0,2.5-0.4,4.3-1.2,5.2c-0.9,1-2.3,1.5-4.3,1.5c-2.1,0-3.6-0.7-4.4-2c-0.6-0.9-0.9-2.6-0.9-5.2
		V52.6z"/>
	<path style="fill:#BE1E2D;" d="M56.6,52.6h8.4v2.7h-5.2v7.4h4.6v2.7h-4.6v8h5.2V76h-8.4V52.6z"/>
	<path style="fill:#BE1E2D;" d="M79.1,50.3h2.4L67.6,82.4h-2.5L79.1,50.3z"/>
	<path style="fill:#BE1E2D;" d="M83,52.6h8.4v2.7h-5.3v7.4h4.8v2.7h-4.8V76H83V52.6z"/>
	<path style="fill:#BE1E2D;" d="M97.5,52.6h2.5l5,23.4h-3.1l-0.9-4.6h-4.6L95.4,76h-3L97.5,52.6z M100.5,69l-0.7-3.7
		c-0.5-2.5-0.8-5.2-1.1-8.1c-0.1,1.4-0.3,2.8-0.5,4.3c-0.2,1.4-0.5,3-0.8,4.6l-0.6,3H100.5z"/>
	<path style="fill:#BE1E2D;" d="M107.4,52.6h3.1v20.7h5.1V76h-8.3V52.6z"/>
	<path style="fill:#BE1E2D;" d="M126.4,53.1v3.1c-1-0.7-1.8-1-2.6-1c-0.8,0-1.5,0.3-2,0.9c-0.5,0.6-0.8,1.3-0.8,2.2
		c0,0.8,0.2,1.5,0.6,2.1c0.2,0.3,0.5,0.7,0.9,1.2c0.4,0.5,1,1.1,1.7,1.8c1.3,1.3,2.2,2.4,2.6,3.4c0.5,0.9,0.7,2,0.7,3.4
		c0,1.8-0.5,3.3-1.5,4.5c-1,1.1-2.3,1.7-3.9,1.7c-1.3,0-2.5-0.4-3.4-1.1v-3.1c1.1,0.8,2.1,1.2,3.1,1.2c0.9,0,1.5-0.3,2-0.9
		c0.5-0.6,0.7-1.3,0.7-2.3c0-0.8-0.2-1.6-0.6-2.3c-0.2-0.3-0.5-0.7-0.8-1.1c-0.3-0.4-0.8-0.9-1.3-1.4c-0.8-0.8-1.5-1.5-2-2.1
		c-0.5-0.6-0.9-1.1-1.2-1.6c-0.5-0.9-0.7-2-0.7-3.4c0-1.8,0.5-3.3,1.4-4.3c1-1.1,2.2-1.6,3.9-1.6C124.3,52.3,125.4,52.6,126.4,53.1z
		"/>
	<path style="fill:#BE1E2D;" d="M130.8,52.6h8.4v2.7h-5.2v7.4h4.6v2.7h-4.6v8h5.2V76h-8.4V52.6z"/>
	<path style="fill:#BE1E2D;" d="M149.7,52.6h8.4v2.7h-5.3v7.4h4.8v2.7h-4.8V76h-3.1V52.6z"/>
	<path style="fill:#BE1E2D;" d="M161.2,52.6h3.1V76h-3.1V52.6z"/>
	<path style="fill:#BE1E2D;" d="M168.5,52.6h3.1v20.7h5.1V76h-8.3V52.6z"/>
	<path style="fill:#BE1E2D;" d="M180.5,52.6h2.7l2.1,9.5c0.3,1.2,0.5,2.4,0.7,3.6c0.2,1.2,0.4,2.5,0.6,3.8c0-0.2,0-0.3,0-0.4
		c0-0.1,0-0.2,0-0.2l0.4-2.7l0.4-2.5l0.3-1.7l1.8-9.4h2.7l2.1,23.4h-3l-0.5-7.9c0-0.4,0-0.8-0.1-1c0-0.3,0-0.5,0-0.7l-0.1-3.1
		l-0.1-2.9c0,0,0-0.1,0-0.1c0-0.1,0-0.2,0-0.3l-0.1,0.5c-0.1,0.6-0.2,1-0.2,1.5s-0.1,0.8-0.2,1l-0.4,2.1l-0.2,0.8l-2,10.2h-2.1
		l-1.8-8.8c-0.3-1.2-0.5-2.3-0.7-3.5c-0.2-1.2-0.4-2.5-0.5-3.8L181.6,76h-3L180.5,52.6z"/>
	<path style="fill:#BE1E2D;" d="M204.8,52.6h8.4v2.7h-5.3v7.4h4.8v2.7h-4.8V76h-3.1V52.6z"/>
	<path style="fill:#BE1E2D;" d="M216.2,52.6h8.4v2.7h-5.2v7.4h4.6v2.7h-4.6v8h5.2V76h-8.4V52.6z"/>
	<path style="fill:#BE1E2D;" d="M235.9,53.1v3.1c-1-0.7-1.8-1-2.6-1c-0.8,0-1.5,0.3-2,0.9c-0.5,0.6-0.8,1.3-0.8,2.2
		c0,0.8,0.2,1.5,0.6,2.1c0.2,0.3,0.5,0.7,0.9,1.2c0.4,0.5,1,1.1,1.7,1.8c1.3,1.3,2.2,2.4,2.6,3.4c0.5,0.9,0.7,2,0.7,3.4
		c0,1.8-0.5,3.3-1.5,4.5c-1,1.1-2.3,1.7-3.9,1.7c-1.3,0-2.5-0.4-3.4-1.1v-3.1c1.1,0.8,2.1,1.2,3.1,1.2c0.9,0,1.5-0.3,2-0.9
		c0.5-0.6,0.7-1.3,0.7-2.3c0-0.8-0.2-1.6-0.6-2.3c-0.2-0.3-0.5-0.7-0.8-1.1c-0.3-0.4-0.8-0.9-1.3-1.4c-0.8-0.8-1.5-1.5-2-2.1
		c-0.5-0.6-0.9-1.1-1.2-1.6c-0.5-0.9-0.7-2-0.7-3.4c0-1.8,0.5-3.3,1.4-4.3c1-1.1,2.2-1.6,3.9-1.6C233.8,52.3,234.9,52.6,235.9,53.1z
		"/>
	<path style="fill:#BE1E2D;" d="M238.8,52.6h10.2v2.8h-3.5V76h-3.1V55.4h-3.6V52.6z"/>
	<path style="fill:#BE1E2D;" d="M267.6,53v2.8c-0.8-0.4-1.5-0.6-2-0.6c-0.7,0-1.4,0.2-1.9,0.6c-0.5,0.4-1,0.9-1.3,1.7
		c-0.3,0.8-0.6,1.7-0.8,2.9c-0.2,1.2-0.2,2.6-0.2,4.2c0,5.8,1.5,8.7,4.4,8.7c0.5,0,1.1-0.2,1.9-0.5v2.9c-0.8,0.4-1.6,0.6-2.5,0.6
		c-4.7,0-7.1-3.9-7.1-11.6c0-4.2,0.6-7.3,1.7-9.3s2.9-3.1,5.3-3.1C265.9,52.3,266.8,52.5,267.6,53z"/>
	<path style="fill:#BE1E2D;" d="M282.4,64.9c0,4.1-0.5,7.1-1.4,8.8c-0.9,1.7-2.5,2.6-4.6,2.6c-2.3,0-3.9-0.9-4.8-2.8
		c-0.9-1.8-1.4-5.1-1.4-9.7c0-4.2,0.5-7.1,1.4-8.8c0.9-1.7,2.5-2.6,4.7-2.6c2,0,3.4,0.7,4.4,2c0.6,0.9,1.1,2.2,1.4,3.8
		C282.3,59.7,282.4,61.9,282.4,64.9z M279.1,65.2c0-4-0.2-6.7-0.5-8.1c-0.4-1.3-1.1-2-2.2-2s-1.9,0.6-2.2,1.8
		c-0.4,1.2-0.5,3.7-0.5,7.4c0,3.4,0.2,5.8,0.6,7.1c0.4,1.3,1.1,1.9,2.2,1.9c1.1,0,1.8-0.6,2.2-1.8C278.9,70.5,279.1,68.4,279.1,65.2
		z"/>
	<path style="fill:#BE1E2D;" d="M284.3,52.6h3.1l1.4,8.6l0.2,1.6l0.5,3.4c0.1,0.6,0.2,1.1,0.2,1.6c0.1,0.5,0.1,0.9,0.2,1.3l0.2,1.2
		c0-0.2,0.1-0.4,0.1-0.6c0-0.2,0-0.3,0.1-0.5l0.4-2.7l0.5-3.6c0-0.3,0.1-0.6,0.1-0.9c0-0.3,0.1-0.5,0.1-0.7l1.5-8.6h2.9L291.3,76
		h-2.5L284.3,52.6z"/>
	<path style="fill:#BE1E2D;" d="M298.2,52.6h8.4v2.7h-5.2v7.4h4.6v2.7h-4.6v8h5.2V76h-8.4V52.6z"/>
	<path style="fill:#BE1E2D;" d="M310.1,52.6h4.1c1.7,0,3,0.4,3.8,1.2c1.1,1.1,1.6,2.7,1.6,4.9c0,1.7-0.3,3-0.8,4
		c-0.6,1-1.4,1.6-2.4,1.9l4.3,11.4h-3.2l-4.3-11.4V76h-3.1V52.6z M313.3,63c1.2,0,2.1-0.3,2.6-0.8c0.5-0.6,0.8-1.5,0.8-2.9
		c0-0.7-0.1-1.3-0.2-1.9c-0.1-0.5-0.3-0.9-0.5-1.3c-0.2-0.3-0.5-0.6-0.9-0.7c-0.4-0.2-0.8-0.2-1.3-0.2h-0.5V63z"/>
	<path style="fill:#BE1E2D;" d="M327.1,52.6h2.5l5,23.4h-3.1l-0.9-4.6H326l-0.9,4.6h-3L327.1,52.6z M330.1,69l-0.7-3.7
		c-0.5-2.5-0.8-5.2-1.1-8.1c-0.1,1.4-0.3,2.8-0.5,4.3c-0.2,1.4-0.5,3-0.8,4.6l-0.6,3H330.1z"/>
	<path style="fill:#BE1E2D;" d="M342.6,63.7h5.7v0.9c0,4.6-0.4,7.6-1.2,9.2c-0.8,1.6-2.3,2.5-4.4,2.5c-2.2,0-3.8-0.9-4.8-2.7
		c-0.9-1.8-1.4-4.9-1.4-9.2c0-4.9,0.5-8.2,1.5-9.8c1-1.5,2.5-2.3,4.5-2.3c1.5,0,2.7,0.4,3.6,1.1c0.9,0.7,1.5,2,2,3.7l-2.9,1.2
		c-0.1-0.6-0.3-1.1-0.4-1.6c-0.2-0.4-0.3-0.7-0.5-1c-0.4-0.5-1-0.7-1.7-0.7c-1,0-1.8,0.6-2.1,1.9c-0.4,1.4-0.6,3.8-0.6,7.3
		c0,3.5,0.2,5.9,0.6,7.2c0.4,1.3,1.1,1.9,2.2,1.9c1,0,1.7-0.4,2.1-1.3c0.4-0.9,0.6-2.5,0.6-4.6v-0.6v-0.5h-2.7V63.7z"/>
	<path style="fill:#BE1E2D;" d="M352,52.6h8.4v2.7h-5.2v7.4h4.6v2.7h-4.6v8h5.2V76H352V52.6z"/>
</g>
</svg>
